<?xml version="1.0" encoding="UTF-8" standalone="no"?>
<!-- Generator: Adobe Illustrator 17.0.1, SVG Export Plug-In . SVG Version: 6.00 Build 0)  -->

<svg
   xmlns:dc="http://purl.org/dc/elements/1.1/"
   xmlns:cc="http://creativecommons.org/ns#"
   xmlns:rdf="http://www.w3.org/1999/02/22-rdf-syntax-ns#"
   xmlns:svg="http://www.w3.org/2000/svg"
   xmlns="http://www.w3.org/2000/svg"
   xmlns:xlink="http://www.w3.org/1999/xlink"
   xmlns:sodipodi="http://sodipodi.sourceforge.net/DTD/sodipodi-0.dtd"
   xmlns:inkscape="http://www.inkscape.org/namespaces/inkscape"
   version="1.1"
   x="0px"
   y="0px"
   width="86px"
   height="86px"
   viewBox="0 0 86 86"
   enable-background="new 0 0 86 86"
   xml:space="preserve"
   id="svg2"
   inkscape:version="0.91 r13725"
   sodipodi:docname="icon.svg"
   inkscape:export-filename="/home/otto/develop/sailfishos/harbour-tothem/icon/108x108/harbor-tothem.png"
   inkscape:export-xdpi="113.02325"
   inkscape:export-ydpi="113.02325"><metadata
     id="metadata23"><rdf:RDF><cc:Work
         rdf:about=""><dc:format>image/svg+xml</dc:format><dc:type
           rdf:resource="http://purl.org/dc/dcmitype/StillImage" /><dc:title></dc:title></cc:Work></rdf:RDF></metadata><defs
     id="defs21"><linearGradient
       id="linearGradient4402"
       inkscape:collect="always"><stop
         id="stop4404"
         offset="0"
         style="stop-color:#fad9ae;stop-opacity:1" /><stop
         id="stop4406"
         offset="1"
         style="stop-color:#f3b055;stop-opacity:1" /></linearGradient><linearGradient
       inkscape:collect="always"
       id="linearGradient4390"><stop
         style="stop-color:#f3b055;stop-opacity:1;"
         offset="0"
         id="stop4392" /><stop
         style="stop-color:#f3b055;stop-opacity:0;"
         offset="1"
         id="stop4394" /></linearGradient><linearGradient
       inkscape:collect="always"
       id="linearGradient4245"><stop
         style="stop-color:#1d73ff;stop-opacity:1"
         offset="0"
         id="stop4247" /><stop
         style="stop-color:#b2a9f5;stop-opacity:1"
         offset="1"
         id="stop4249" /></linearGradient><linearGradient
       inkscape:collect="always"
       xlink:href="#linearGradient4245"
       id="linearGradient4251"
       x1="17.701912"
       y1="58.654961"
       x2="71.157013"
       y2="13.90836"
       gradientUnits="userSpaceOnUse" /><linearGradient
       inkscape:collect="always"
       xlink:href="#linearGradient4245"
       id="linearGradient4316"
       x1="17.701912"
       y1="58.654961"
       x2="71.157013"
       y2="13.90836"
       gradientUnits="userSpaceOnUse" /><radialGradient
       inkscape:collect="always"
       xlink:href="#linearGradient4390"
       id="radialGradient4396"
       cx="63.718587"
       cy="33.924683"
       fx="63.718587"
       fy="33.924683"
       r="15.508301"
       gradientTransform="matrix(1,0,0,0.94709778,0,1.7946911)"
       gradientUnits="userSpaceOnUse" /><radialGradient
       inkscape:collect="always"
       xlink:href="#linearGradient4402"
       id="radialGradient4400"
       gradientUnits="userSpaceOnUse"
       gradientTransform="matrix(0.17322248,-0.01176195,0.01205642,0.17755927,52.272084,28.650496)"
       cx="78.673111"
       cy="1.7595143"
       fx="78.673111"
       fy="1.7595143"
       r="15.508301" /></defs><sodipodi:namedview
     pagecolor="#ffffff"
     bordercolor="#666666"
     borderopacity="1"
     objecttolerance="10"
     gridtolerance="10"
     guidetolerance="10"
     inkscape:pageopacity="0"
     inkscape:pageshadow="2"
     inkscape:window-width="2091"
     inkscape:window-height="1383"
     id="namedview19"
     showgrid="false"
     showguides="false"
     inkscape:guide-bbox="true"
     inkscape:zoom="1.8101934"
     inkscape:cx="-118.09824"
     inkscape:cy="62.497138"
     inkscape:window-x="439"
     inkscape:window-y="426"
     inkscape:window-maximized="0"
     inkscape:current-layer="Layer_1"><sodipodi:guide
       position="104.94915,103.85593"
       orientation="0,1"
       id="guide4166" /><sodipodi:guide
       position="97.753907,83.789063"
       orientation="0,1"
       id="guide4253" /></sodipodi:namedview><g
     id="Layer_2"
     display="none" /><g
     id="Layer_1"
     transform="matrix(0,1,-1,0,86.182203,-0.36440678)"><linearGradient
       id="SVGID_1_"
       gradientUnits="userSpaceOnUse"
       x1="85.282898"
       y1="0.71719998"
       x2="12.8066"
       y2="73.193497"><stop
         offset="0"
         style="stop-color:#008075"
         id="stop7" /><stop
         offset="1"
         style="stop-color:#00BFAF"
         id="stop9" /></linearGradient><path
       d="M 85.7,1.723 C 85.7,0.937 85.063,0.3 84.277,0.3 c 0,0 -40.641,0 -41.276,0 C 19.417,0.3 0.3,19.417 0.3,43 0.3,66.582 19.417,85.7 43,85.7 66.583,85.7 85.7,66.582 85.7,43 c 0,-0.636 0,-41.277 0,-41.277 z"
       id="path11"
       style="fill:#ff9955;fill-opacity:1"
       inkscape:connector-curvature="0" /><g
       id="g13"
       style="fill-opacity:1;fill:url(#linearGradient4251)"><path
         d="m 43.187,75.025 c -17.556,0 -31.838,-14.282 -31.838,-31.838 0,-17.556 14.282,-31.838 31.838,-31.838 l 31.837,0 0,31.838 c 0,17.556 -14.282,31.838 -31.837,31.838 z"
         id="path15"
         inkscape:connector-curvature="0"
         style="fill:url(#linearGradient4251);fill-opacity:1" /></g><g
       id="g4412"
       transform="translate(-1.0574636,-0.18549756)"><g
         style="fill:url(#radialGradient4396);fill-opacity:1;stroke:none;stroke-width:0.11599262;stroke-miterlimit:4;stroke-dasharray:none;stroke-opacity:0.08959536"
         transform="matrix(0,-1.8305397,1.8305397,0,-17.824638,161.6892)"
         id="layer1"
         inkscape:label="outline"><path
           inkscape:connector-curvature="0"
           id="path2327"
           sodipodi:nodetypes="ccccccccccccccccccccsccccccccccccccccccccccc"
           style="fill:url(#radialGradient4400);fill-opacity:1;fill-rule:evenodd;stroke:none;stroke-width:0.30467686;stroke-miterlimit:4;stroke-dasharray:none;stroke-opacity:0.08959536"
           d="m 62.949726,19.236805 c -1.185818,2.138776 -1.629841,4.469215 -1.715483,6.848756 -0.658788,0.476083 -1.179668,1.145412 -1.482712,2.044876 -0.246826,0.923619 -0.423819,1.873152 -0.534935,2.841131 l -10.581884,3.225423 c -0.08652,0.63068 -1.019803,0.716762 0.192366,2.182344 l 1.660584,0.219596 c -0.15767,0.445779 -0.557774,0.811187 0.164697,1.550785 0.40669,0.309191 0.979837,0.203346 1.592069,0 -0.153278,0.518686 -0.48355,1.01585 0.150643,1.633354 0.672842,0.274055 1.345244,0.133953 2.017647,-0.315779 -0.139224,0.335983 -0.537571,0.620578 0.302164,1.152878 0.5648,0.363212 1.242912,-0.06456 1.907848,-0.397907 -0.07861,0.551185 0.341252,0.704024 0.768586,0.850714 1.20075,-0.06104 2.240316,-0.473887 3.307553,-0.974566 0.345204,0.746186 0.744867,1.494569 1.221391,2.250857 -1.085243,0.556455 -1.762476,1.350954 -2.127445,2.264911 1.746331,6.545097 9.911367,3.879625 9.415392,0.31534 -0.344766,-1.131358 -1.201189,-1.914875 -2.086161,-2.648764 0.583687,-0.937236 1.013654,-1.872714 1.344805,-2.799848 0.897269,0.405374 1.954842,0.686896 3.088396,0.795815 0.527468,0.05095 0.948215,0.480477 1.35842,0.933722 l 1.550785,0.754532 c 0.0026,0.01405 0.01186,0.02723 0.01405,0.04128 l 0,-0.04128 0.178311,0.09618 c -0.416352,-1.249063 -0.284595,-2.621097 -0.617503,-3.911442 -0.424699,-0.500678 -0.895512,-0.918788 -1.386089,-1.276731 0.669768,-0.122095 0.882337,-0.190169 1.152439,-0.452806 -0.139041,-1.674826 0.0044,-0.913651 1.194163,-1.660584 0.436556,-0.725105 0.07247,-1.183181 -0.06852,-1.715482 0.370239,-0.08301 0.745748,-0.151082 1.015851,-0.535375 0.17392,-0.558213 0.04084,-1.054938 -0.302164,-1.509502 0.535375,-0.05007 1.07075,-0.14625 1.605685,-0.604327 0.08652,-0.496286 0.573145,-0.999161 -0.384293,-1.495887 0.688214,-0.479158 1.460751,-0.852471 2.017647,-1.495887 0.511219,-0.668011 0.427333,-1.336021 -0.09618,-2.003592 -3.302282,0.773416 -6.414394,2.127444 -9.538365,3.41735 -0.0097,-0.252096 -0.02196,-0.505071 -0.02766,-0.75497 -0.215204,-0.353989 -0.445341,-0.664936 -0.686457,-0.933282 0.541084,-1.828795 1.457237,-1.769065 -0.727301,-7.287947 -1.104567,1.900382 -1.653117,3.650121 -1.564401,5.819289 -0.507267,-0.177432 -1.056695,-0.316657 -1.661024,-0.439192 -0.976609,0.114751 -1.274036,-4.999072 -1.632915,-5.983983 z" /></g><g
         style="fill:#313a1a;fill-opacity:1;stroke:#313a1a;stroke-width:0.28998154;stroke-miterlimit:4;stroke-dasharray:none;stroke-opacity:1"
         transform="matrix(0,-1.8305397,1.8305397,0,-17.855393,161.69698)"
         id="layer1-2"
         inkscape:label="outline"><path
           inkscape:connector-curvature="0"
           id="path2327-7"
           sodipodi:nodetypes="ccccccccccccccccccccsccccccccccccccccccccccccccccccccccccccccccccccccccccccccccccccccccccccccccccccccccccccccccccccccccccccccccccccccccccccccccccccccccccccccccccccccccccccccccccccccccccccccccccccccccccccccccccsccccsccssccccccccccccccc"
           style="fill:#313a1a;fill-opacity:1;fill-rule:evenodd;stroke:#313a1a;stroke-width:0.28998154;stroke-miterlimit:4;stroke-dasharray:none;stroke-opacity:1"
           d="m 62.949726,19.236805 c -1.185818,2.138776 -1.629841,4.469215 -1.715483,6.848756 -0.658788,0.476083 -1.179668,1.145412 -1.482712,2.044876 -0.246826,0.923619 -0.423819,1.873152 -0.534935,2.841131 l -10.581884,3.225423 c -0.08652,0.63068 -1.019803,0.716762 0.192366,2.182344 l 1.660584,0.219596 c -0.15767,0.445779 -0.557774,0.811187 0.164697,1.550785 0.40669,0.309191 0.979837,0.203346 1.592069,0 -0.153278,0.518686 -0.48355,1.01585 0.150643,1.633354 0.672842,0.274055 1.345244,0.133953 2.017647,-0.315779 -0.139224,0.335983 -0.537571,0.620578 0.302164,1.152878 0.5648,0.363212 1.242912,-0.06456 1.907848,-0.397907 -0.07861,0.551185 0.341252,0.704024 0.768586,0.850714 1.20075,-0.06104 2.240316,-0.473887 3.307553,-0.974566 0.345204,0.746186 0.744867,1.494569 1.221391,2.250857 -1.085243,0.556455 -1.762476,1.350954 -2.127445,2.264911 1.746331,6.545097 9.911367,3.879625 9.415392,0.31534 -0.344766,-1.131358 -1.201189,-1.914875 -2.086161,-2.648764 0.583687,-0.937236 1.013654,-1.872714 1.344805,-2.799848 0.897269,0.405374 1.954842,0.686896 3.088396,0.795815 0.527468,0.05095 0.948215,0.480477 1.35842,0.933722 l 1.550785,0.754532 c 0.0026,0.01405 0.01186,0.02723 0.01405,0.04128 l 0,-0.04128 0.178311,0.09618 c -0.416352,-1.249063 -0.284595,-2.621097 -0.617503,-3.911442 -0.424699,-0.500678 -0.895512,-0.918788 -1.386089,-1.276731 0.669768,-0.122095 0.882337,-0.190169 1.152439,-0.452806 0.03074,-0.435678 0.321488,-0.827876 -0.219595,-1.358419 0.350035,0.263514 0.858619,0.05095 1.413758,-0.302165 0.436556,-0.725105 0.07247,-1.183181 -0.06852,-1.715482 0.370239,-0.08301 0.745748,-0.151082 1.015851,-0.535375 0.17392,-0.558213 0.04084,-1.054938 -0.302164,-1.509502 0.535375,-0.05007 1.07075,-0.14625 1.605685,-0.604327 0.08652,-0.496286 0.573145,-0.999161 -0.384293,-1.495887 0.688214,-0.479158 1.460751,-0.852471 2.017647,-1.495887 0.511219,-0.668011 0.427333,-1.336021 -0.09618,-2.003592 -3.302282,0.773416 -6.414394,2.127444 -9.538365,3.41735 -0.0097,-0.252096 -0.02196,-0.505071 -0.02766,-0.75497 -0.215204,-0.353989 -0.445341,-0.664936 -0.686457,-0.933282 0.541084,-1.828795 1.457237,-1.769065 -0.727301,-7.287947 -1.104567,1.900382 -1.653117,3.650121 -1.564401,5.819289 -0.507267,-0.177432 -1.056695,-0.316657 -1.661024,-0.439192 -0.23321,-0.02591 -0.466421,-0.0058 -0.699631,0 0.168649,-1.404096 0.176994,-2.999239 -0.933282,-5.983986 z m -0.01406,0.741268 c 0.954802,2.659306 0.771659,5.958074 0.508145,8.550184 l 0.109797,-0.01362 c 0.184461,-1.185379 0.173042,-2.090112 0.301725,-3.060726 0.234529,-0.02283 0.468618,-0.02943 0.700072,-0.02722 1.76599,0.142297 3.633871,1.063722 4.378301,2.786231 -0.02679,0.291185 -0.04875,0.581929 -0.0549,0.86433 -0.221352,-0.213887 -0.336859,-0.163379 -0.741355,-0.123413 -0.83622,0.147568 -0.83622,0.669328 -0.891998,1.413758 -0.02065,1.011458 0.155473,1.665854 0.878383,2.388324 0.507267,0.26659 0.558213,0.07379 0.960513,-0.178751 0.047,0.592031 0.08213,1.20075 0.08257,1.82572 -0.985107,-0.52703 -2.206061,-0.08872 -3.074342,0.480037 -0.274935,-0.007 -0.525274,0.100571 -0.782202,0.178751 -0.93416,0.618382 -1.476122,1.504232 -1.660583,2.579811 0.20642,1.621935 2.122175,1.172203 3.293938,0.892438 0.368482,0.311826 0.796254,0.594665 1.289905,0.837099 -0.355305,0.936796 -0.827876,1.943423 -1.48227,3.047112 0.891119,0.48882 1.570987,1.166055 2.017645,2.017207 -0.293819,0.475205 -0.572266,0.730376 -0.878383,0.274495 -0.25561,-1.072067 -1.059769,-1.701868 -1.949132,-2.264472 0.769024,0.56524 1.252574,1.507744 1.537171,2.470453 -0.561727,0.270103 -1.176595,0.446659 -1.770383,0.535375 -0.04919,-0.498482 -0.364968,-0.917472 -0.590273,-1.345245 l -0.01362,0.02767 c 0.126926,0.452807 0.308751,0.905614 0.192366,1.358859 -0.431287,0.108042 -0.888924,0.139224 -1.331629,-0.09618 l -0.233212,-1.372474 -0.02766,0.01362 -0.205541,1.30396 c -1.164737,0.120777 -2.272378,-0.388685 -3.431405,-0.686457 0.45149,-1.198994 1.164297,-1.962748 2.223627,-2.250858 -0.53757,-0.799329 -0.986864,-1.608758 -1.358858,-2.415554 0.44534,-0.212569 0.969296,-0.481793 1.440987,-0.700071 0.577977,-0.665376 0.334665,-0.794937 -0.343009,-1.166493 0.588079,-0.485746 0.234968,-1.078655 -0.20598,-1.399704 0.651321,-0.492773 0.538449,-0.999161 0.315779,-1.633354 0.909126,-0.610476 0.617064,-1.362372 0.302163,-2.250857 0.723349,-1.028586 0.717201,-1.801126 0.31534,-2.89603 l -0.01362,0.02766 -0.02766,-0.06851 -3.115187,0.946897 c 0.08608,-0.841052 0.2174,-1.692205 0.384292,-2.566636 0.213009,-0.778248 0.670646,-1.376427 1.249062,-1.825281 -0.01009,0.474327 -0.01406,0.950411 0,1.427374 l 0.02722,-0.04128 c -0.03294,-2.744949 0.654395,-5.604964 1.674199,-7.864166 z m 4.831108,0.452806 c 0.902539,2.333865 1.20646,4.125767 0.590274,6.505747 -0.547233,-0.549429 -1.172642,-0.919667 -1.88018,-1.194163 -0.177872,-2.024673 0.377265,-3.399344 1.289906,-5.311584 z m -4.899622,0.548991 c -0.561726,2.063761 -1.036053,2.712008 -0.905614,5.064318 l 0.04128,0 c -0.08564,-2.138423 0.395714,-2.237242 0.782202,-3.979954 0.361454,2.051024 0.442705,3.078733 0.343008,5.077933 l 0.01362,-0.02723 c 0.225305,-2.378662 0.464227,-2.094505 -0.274494,-6.135069 z m 15.618974,4.831108 c 0.920546,1.128722 -0.729498,2.100214 -1.64697,2.648764 l -7.384129,2.593867 -0.109798,0.137467 c -0.02899,-0.687336 -0.05358,-1.372913 -0.08213,-2.044876 2.965423,-1.22842 5.965102,-2.795016 9.223026,-3.335222 z m -1.839335,3.15647 c 0.548111,0.437436 0.870917,0.894633 0.26088,1.235447 -0.300407,0.427771 -1.121696,0.442265 -1.605686,0.686456 l -5.627363,1.632915 0.04128,0.09618 5.778006,-1.440989 c 0.197636,0.309191 0.33686,0.631119 0.08257,1.015412 -0.20554,0.437435 -0.540205,0.502874 -0.933281,0.658787 l -4.131476,1.152878 -0.01362,0.08257 4.254889,-0.974566 c 0.119461,0.491016 0.189292,0.976324 -0.09618,1.386089 -0.430847,0.274055 -0.832267,0.554699 -1.50994,0.411961 l -1.866565,0.507706 -0.02722,0.06852 2.099775,-0.301725 c 0.191048,0.240238 0.36365,0.50024 0.123412,0.960512 -0.28723,0.209494 -0.387806,0.487064 -1.042641,0.563044 -0.287673,-0.195008 -0.581493,-0.369806 -0.878385,-0.521766 -0.661423,-0.579733 -1.344806,-1.203386 -2.182344,-1.674199 0.05007,-1.087439 0.02987,-2.154674 -0.01362,-3.211809 z m -8.316973,0.137466 c 0.23365,-0.04744 0.351354,0.100571 0.548989,0.205982 -0.0014,0.22838 0.0058,0.447536 0.01362,0.672403 -0.496287,-0.520442 -0.481354,-0.359259 -0.988181,0.04128 -0.350915,0.534057 -0.295577,0.807673 -0.04128,1.344804 0.498922,0.51649 0.592469,0.404935 1.097979,0 0.01009,-0.01493 0.01844,-0.02635 0.02766,-0.04084 0.03074,0.372873 0.05139,0.748822 0.08213,1.125209 -0.321489,0.267468 -0.54899,0.213447 -0.905614,0.164697 -0.610475,-0.605207 -0.646489,-1.460313 -0.672402,-2.278088 -0.02371,-0.635071 0.196758,-0.894633 0.727301,-1.194161 0.04128,-0.01625 0.07466,-0.03426 0.109798,-0.04128 z m -2.854746,0.06851 c -1.196359,0.216081 -1.258284,1.175716 -1.358859,2.223627 0.03689,1.127844 0.147568,1.805517 1.290345,2.11339 1.192405,-0.219597 1.217878,-1.152439 1.317575,-2.195958 -0.03821,-1.11379 -0.120338,-1.833626 -1.249061,-2.141059 z m -0.02766,0.164697 c 0.871795,0.262196 0.989937,1.169128 1.070748,1.976362 -0.02504,0.887606 -0.254291,1.637307 -1.070748,1.990416 -0.887606,-0.259562 -1.002675,-1.172202 -1.084364,-1.990416 0.02415,-0.892438 0.263076,-1.628084 1.084364,-1.976362 z m 2.937313,0.603888 c 0.09575,-0.0014 0.155035,0.115068 0.343009,0.164697 0.262637,0.411522 0.158109,0.726423 0,1.139263 -0.314022,0.302602 -0.286791,0.07949 -0.590274,0 -0.262636,-0.411523 -0.158109,-0.726423 0,-1.139263 0.119022,-0.113751 0.189731,-0.163819 0.247265,-0.164697 z m -5.654593,0.06896 c 0.233651,0.969296 0.325002,1.946498 -0.411961,2.827077 0.188413,0.689092 0.665814,1.316258 -0.274495,2.250857 -0.003,0.537132 0.391759,1.038688 -0.274495,1.619739 0.157231,0.437436 0.849398,0.529666 0.178313,1.427373 0.780003,0.36365 0.761118,0.51605 0.384731,1.09798 -1.607002,0.975005 -3.253092,0.99916 -4.858777,1.427373 -0.392638,-0.05446 -0.603449,-0.287232 -0.672403,-0.617943 l 2.566636,-1.331191 -0.09618,-0.0685 -2.758562,1.12521 0.02722,0.0549 c -0.53801,0.202907 -1.152439,0.548551 -1.660583,0.370679 -0.265272,-0.258684 -0.250779,-0.555578 -0.205981,-0.8371 l 4.597897,-1.715921 0.04084,-0.06851 -4.775771,1.455042 0,0.01362 c -0.595544,0.231016 -1.242473,0.589396 -1.82572,0.343009 -0.397899,-0.395282 -0.259555,-0.848528 -0.150634,-1.276301 l 7.959909,-2.69005 0,-0.123412 -8.069708,2.442783 0,0.01362 c -0.485746,0.107602 -0.956998,0.31007 -1.358859,0.04128 -0.519125,-0.255609 -0.332907,-0.783958 -0.219596,-1.235007 l 10.115024,-3.12924 -0.02766,-0.109798 -10.211206,2.881976 -1.523117,-0.205981 C 48.103299,35.428415 48.587727,34.787634 48.9505,34.320334 53.590999,33.140665 58.184944,31.95353 62.730137,30.010986 Z m 2.703665,0.480036 c -0.101012,-0.01405 -0.199394,0.08828 -0.452807,0.288549 -0.351353,0.533618 -0.364528,0.999601 -0.109797,1.537172 0.498921,0.516049 0.592029,0.294697 1.097978,-0.109799 0.350915,-0.534057 0.172164,-0.766829 -0.08257,-1.30396 -0.248143,-0.260441 -0.351791,-0.397907 -0.452806,-0.411962 z m -0.06852,0.384293 c 0.543719,-0.02811 0.534496,0.672842 0.329393,1.207777 -0.314022,0.302604 -0.287231,0.07994 -0.590273,0 -0.262636,-0.411522 -0.158109,-0.740037 0,-1.152878 0.101453,-0.03601 0.183144,-0.05095 0.26088,-0.0549 z m 2.648764,3.499919 c 1.205142,-0.113751 1.993052,0.640781 2.758564,1.468657 -0.488381,-0.192805 -0.979837,-0.344766 -1.454603,-0.452807 -0.351793,-0.210812 -1.40761,-0.06763 -1.990417,-0.05533 2.517447,-0.03294 4.615904,1.380379 6.382334,3.102012 0.290745,0.843686 0.406691,1.838455 0.548989,2.744948 -0.481801,-1.072518 -1.717686,-1.745359 -2.607927,-2.19597 -1.04352,-0.528348 -2.278527,-0.866086 -2.854746,-1.743152 -0.832269,-0.900782 -1.786193,-1.01014 -2.730894,-0.301725 l 0.09575,0.04084 c 0.767706,-0.363212 1.786192,-0.13615 2.415554,0.411962 0.676793,1.030343 2.060687,1.27102 3.074342,1.783995 0.870917,0.440949 2.187175,1.283758 2.662819,2.305758 0.01318,0.07818 0.02679,0.15767 0.04084,0.233649 -0.07422,-0.02987 -0.465103,-0.168649 -0.548989,-0.233649 -0.177434,-0.137028 -0.465543,-0.155474 -0.672402,-0.383853 -0.41328,-0.4572 -0.807234,-1.192846 -1.537171,-1.263117 -1.729976,0.01625 -3.196437,-0.554699 -4.707696,-1.413318 -1.095783,0.361894 -2.212647,0.302603 -2.799407,-0.782639 0.08564,-0.957878 0.664935,-1.809031 1.372035,-2.387886 0.601692,-0.499361 1.143215,-0.137906 1.770821,0.06851 0.0092,0 -0.03689,-0.05446 -0.02766,-0.0549 -0.323685,-0.226622 -0.6298,-0.346523 -0.960513,-0.370678 0.697437,-0.316657 1.279806,-0.479597 1.770382,-0.52132 z m 0.906054,10.389518 c 0.02152,0.05007 0.04831,0.10014 0.06851,0.151082 0.737045,4.637958 -9.000758,4.464934 -8.934915,-0.109798 0.990816,0.4998 2.342649,0.978081 3.719514,0.919667 0.639903,0.32061 1.296054,0.180508 1.880179,0.08213 0.996966,0.09794 1.867444,-0.191048 2.086161,-0.672402 0.464226,0.306116 0.862134,-0.05446 1.180548,-0.370679 z" /></g></g></g></svg>